<?xml version="1.0" encoding="utf-8"?>
<!-- Generator: Adobe Illustrator 22.0.1, SVG Export Plug-In . SVG Version: 6.00 Build 0)  -->
<svg version="1.1" id="Layer_1" xmlns="http://www.w3.org/2000/svg" xmlns:xlink="http://www.w3.org/1999/xlink" x="0px" y="0px"
	 viewBox="0 0 104.7 146.1" style="enable-background:new 0 0 104.7 146.1;" xml:space="preserve">
<style type="text/css">
	.st0{fill:#FA4778;}
</style>
<path class="st0" d="M87.2,21.1L83.7,38c-0.4,1.8-2.1,3.4-4.2,3.4H49.1c-3.4,0-6.2,2.8-6.2,6.2v3.7c0,3.4,2.8,6.2,6.2,6.2h25.7
	c2.4,0,4.4,2.3,3.9,4.8c-0.5,2.6-3.2,15.8-3.5,17.2C75,81,73.4,82.9,71,82.9H50c-4.4,0.1-5.3,0.2-7.9,3.4c-2.6,3.2-25.6,32-25.6,32
	c-0.2,0.3-0.4,0.2-0.4-0.1V20.3c0-2.3,1.9-4.2,4.2-4.2h63.1C85.6,16.1,87.8,18.3,87.2,21.1 M91.8,0c0,0-67.1,0-77.9,0
	C3.2,0,0,8.1,0,13.2V137c0,6.1,3.1,7.9,4.8,8.6c1.7,0.7,6.2,1.2,9.4-2c0,0,37-43.1,37.6-43.8c0.6-0.7,0.9-0.7,1.3-0.7
	c0.4,0,15.7,0,23.4,0c10,0,11.9-6.9,13-11.1c0.9-3.5,11.2-53.5,14.4-69.3C106.3,6.5,103.2,0,91.8,0"/>
</svg>
